<svg xmlns="http://www.w3.org/2000/svg" width="40" height="40" viewBox="0 0 40 40">
  <path fill="rgb(237,203,155)" fill-rule="evenodd" d="M38.203125 17.73458862H38.125V4.9223938C38.12243652 2.20477295 35.91986084.00241089 33.20220947 0H30.15625c-2.71704102.00292969-4.91894531 2.20477295-4.921875 4.92175293v2.63494873h-.67028809c-.16577148.00015259-.3225708.07528687-.4265747.20437622L23.75 8.24542236c-.85083008 1.06375122-1.36376953 2.35778809-1.47283936 3.71554566-.92816162.08078003-1.6409912.85705566-1.64245605 1.7887268v1.10778809c-.00012207.14505005.05749512.2842102.16009521.38677979.10253907.10256958.24169922.16015625.38677979.1600647h11.69750977c.14501953.00009155.28417968-.05749512.38677978-.1600647.10253906-.10256958.16015625-.24172974.16009522-.38677979v-1.10778809c-.00134278-.93170166-.7140503-1.70809936-1.64221192-1.78903198-.10858154-1.35739136-.62097168-2.65124512-1.47125244-3.71490478l-.38781738-.48373413c-.10375977-.12939454-.26068116-.2046814-.42657471-.20471192h-.67089844V4.9223938c.00030518-.73382568.59521485-1.32855225 1.32904053-1.32873535h3.046875c.73321533.0007019 1.32745361.59490967 1.328125 1.32809448v12.81222534H17.90032959v-.01968384c.00067139-1.1663208-.71417236-2.21365356-1.80059814-2.63796997-1.08642579-.42434692-2.32189942-.13879394-3.11193848.71923828-.45196533-.28915405-.98321533-.42944336-1.51904297-.4012146-.54614258-1.54171752-2.00402832-2.57235717-3.63964844-2.57299804C6.19354248 12.82073975 4.73480225 13.85025024 4.1875 15.39151c-1.3067627.03762817-2.37902832 1.04638672-2.49627686 2.34838867C.74273682 17.79608154.00183105 18.58068848 0 19.53079224v.9375c.0010376.99191284.80493164 1.79577636 1.796875 1.79681396H1.875v6.24987793c.0024414 3.05258179 1.73028564 5.84152222 4.46252441 7.2029419l-.5706787 1.3465271c-.45465089 1.07400512.04742431 2.31323242 1.12145995 2.76791381 1.07397461.4546814 2.31323243-.0473938 2.76794434-1.1213684l.9093628-2.14935303h18.8687744l.90997315 2.14901733c.46368408 1.05981445 1.69366455 1.54934693 2.75878906 1.09802246 1.06512452-.45132446 1.5689087-1.67550659 1.13000489-2.74578857l-.57067871-1.3449707c2.73205566-1.36132813 4.45983886-4.14996338 4.46252441-7.20233155v-6.24984741h.078125c.9921875-.0010376 1.79620361-.80529785 1.796875-1.79745483v-.9375c-.0014038-.9916687-.80517578-1.79516602-1.796875-1.79620362zM33.20220947 2.49993896H30.15625c-1.33691406.0015564-2.42034912 1.08493042-2.421875 2.42181397v2.63494873h-1.40625V4.9223938c.00189209-2.11349487 1.7145996-3.82644653 3.828125-3.82867432h3.046875c2.11328125.00222779 3.8258667 1.71481323 3.828125 3.82803345v12.81219482H35.625V4.92175293c-.00152588-1.33724976-1.08551025-2.42077637-2.42279053-2.42181397zM30.6875 11.95318604c-.10803223-1.10583497-.53552246-2.15631104-1.23028564-3.02337647l-.22314454-.27874756h-4.40625l-.22406005.27905274c-.69415284.86715698-1.12109375 1.91751098-1.22875977 3.02307129h7.3125zm1.64471436 1.79647827v.5625H21.72845459v-.5625c.00048828-.38809204.31500244-.70257569.703125-.70309449h9.19750977c.38812255.0005188.70257568.31500245.703125.70309449zM4.5015869 16.50650024c-.0805664-.01400756-.16204834-.02145385-.24377441-.02218628-.72918701.0008545-1.35003662.53039551-1.46594238 1.25027466h14.015625v-.01968383c.00067138-.78848267-.52978516-1.47851563-1.29193116-1.68060303-.762146-.2020874-1.56481933.13446045-1.95495605.81967163-.08605957.15115356-.23895264.25228882-.41168213.2723999-.17279053.02011108-.3447876-.04321289-.46331787-.1705017-.36987305-.40789796-.93945312-.57003785-1.46875-.41812135-.14544678.0390625-.30059814.01638794-.42877197-.0626831-.12823487-.07910156-.21807862-.20758057-.24841309-.35513306-.26507568-1.27886963-1.38763428-2.19873047-2.69366455-2.20724487-1.3060913-.0085144-2.44055176.89663696-2.72229004 2.17193603-.06213379.28375245-.33557129.46914673-.62213135.421875zM38.203125 21.17138672c.38812256-.0005188.70263672-.31500244.703125-.70309448v-.9375c-.00048828-.38809204-.31500244-.70257569-.703125-.70309449H1.796875c-.38812256.0005188-.70263672.31500245-.703125.70309449v.9375c.00048828.38809204.31500244.70257568.703125.70309448h36.40625zm-1.171875 7.34359741c-.00341797 2.8284607-1.7175293 5.37380982-4.3371582 6.4404602-.1875.07687379-.3803711.14657593-.57440186.20626832-.0215454.00656128-.04406738.01217651-.06591797.01873779-.19720459.05844116-.39630127.109375-.59783935.14968872-.0187378.00405884-.03747559.00656128-.05627442.01031494-.2074585.03997803-.4165039.0718689-.62780761.09375-.00872803 0-.01776123 0-.0265503.00186157-.22064209.02093506-.44311523.03125-.66717529.03125H9.921875c-.22064209 0-.43939209-.01156616-.65625-.03125l-.0402832-.00311279c-.20782471-.02062988-.41375733-.05218506-.61785889-.09158325-.02154541-.00405884-.043396-.00717163-.06500244-.01153565-.199646-.04031372-.39746094-.0906372-.59375-.14874267-.02313233-.00689697-.04620361-.01281738-.06903076-.01971436-.19378662-.05966186-.3847046-.12905883-.5737915-.20593261C4.6864624 33.8888855 2.9724121 31.34384155 2.96875 28.51559448v-6.24984741h34.0625v6.24923706zM8.6484375 38.28445435c-.15917969.3765564-.52862549.6210022-.9375.62026977-.34143066.00036621-.66027832-.17059326-.84887695-.45516968-.18865967-.28460693-.22192383-.64483642-.08862305-.95916748l.57220459-1.35058593c.02624512.00906372.05340576.015625.08001709.02438354.1046753.0343628.21057129.06591797.31744385.09591675.0456543.01281738.09094238.02688598.13659668.0390625.1465454.03845215.29437256.07312012.44403076.1031189.04315185.00875854.08660889.01531982.1296997.0234375.11218262.02062988.22467042.03970336.33843995.05563354.05529785.0078125.11065674.01467895.16625976.02124023.10876465.01312256.21813965.02355957.328125.03125.03283692.00283814.0656128.00750733.09844971.0097046l-.73626709 1.74090576zm24.57751465-.79406739l-.5722046-1.35058593c-.02655028.00906372-.05340575.015625-.08062743.02438354-.10479737.03393555-.21026612.06591797-.31652832.09591675-.04595948.01281738-.09155274.02688598-.13781739.0390625-.14691162.03875732-.29510498.07324219-.44470214.10345459-.0409546.00842285-.08221436.01437378-.12341309.02218628-.11437988.02124023-.22973633.0406189-.34594727.05685425-.05377197.00750732-.1074829.0140686-.16125488.02062988-.10998535.01312256-.22064209.02407837-.33190918.0328064-.0324707.00250244-.06463623.00720214-.09747314.0093689l.73687744 1.73999023c.1593628.37643432.52868652.62081909.9375.62026977.34143066.00036621.66027832-.17059326.84893799-.45516968.18859863-.28460693.22186279-.64483642.088562-.95916748z"/>
</svg>
