<svg xmlns="http://www.w3.org/2000/svg" width="40" height="40" viewBox="0 0 40 40">
  <g>
    <path fill="rgb(237,203,155)" fill-rule="evenodd" d="M11.64438912 23.21888554c.66674192-3.6284096-1.49571918-7.18146753-5.04590155-8.29072972-.18726049-.05980562-.39251011-.01556212-.53776166.11591963-.14525154.13148174-.20820877.33001916-.16495026.52017541.0432585.19015625.18609252.34274219.37423043.39978082 3.02256233.94483125 4.86334256 3.97018054 4.29531039 7.05940558l-.04759694.25718512c-.05439853.29502787.14282333.57791153.4405848.63194942.03275511.0058974.0659732.0089081.09926466.00899683.26476377-.00062331.49125896-.18859892.53828378-.44673892l.04853635-.25594417z"/>
    <path fill="rgb(237,203,155)" fill-rule="evenodd" d="M39.0482788 22.503479c-.77496337-.60186767-1.83123778-.69229126-2.69726562-.23092651-.39819336.1979065-.87005615.17782593-1.25-.0531311l-7.28204345-4.20477295.40625-.2340393c.3798828-.23120118.85180664-.2513733 1.25-.05343629.91479492.49069214 2.03851318.35925293 2.81530761-.32928467.77685547-.6885376 1.0421753-1.78823852.66479493-2.75524902-.34851075-.90020752-1.19067383-1.51397705-2.15441895-1.57022095-.41931152-.04223633-.79083252-.28842163-.99316406-.65808105l-4.41571045-7.6442566c-.21875-.35952758-.24609375-.80380248-.07318115-1.18743896.460083-.92141723.3017578-2.03137207-.39752198-2.78747558-.69927978-.75613404-1.7935791-1.00057984-2.74816894-.6138916-.90838623.37045287-1.51446533 1.23980712-1.54785156 2.22018432-.02813721.44317627-.28118897.84112549-.6706543 1.05462647L4.89837646 12.1481018c-.38006591.23062133-.85168457.25076294-1.25006103.05343628-.91461182-.49005127-2.03778076-.35836792-2.81420898.32998657-.77642823.68835449-1.04168702 1.78756714-.66461182 2.75421142.34851074.90023804 1.19067383 1.51400757 2.15441894 1.57022095.41937256.04208374.7909546.28833008.99316407.65811157L7.730896 25.1583252c.21923828.35992431.2467041.80484008.07348632 1.18899536-.46014404.92129516-.3017578 2.03118896.39764405 2.78710937.69940185.7558899 1.7937622.99987793 2.74804687.61270142.68011475-.2784729 1.20281983-.84274292 1.4284668-1.54211426 2.92602539 1.68740845 14.32196045 8.26300049 14.45288086 8.33862305.38934326.213562.64233398.6114502.6706543 1.05462646.03375244.98034668.63983154 1.84954834 1.54815673 2.22018433.29400635.12020874.60864258.18185425.92626953.18154907.85803223.00030518 1.65515137-.44335938 2.10699463-1.1727295.4519043-.7293396.49420166-1.64056396.11181641-2.40863036-.1732788-.38415528-.14581299-.82907105.0734253-1.18899536l4.41387939-7.6442566c.2020874-.369812.57373047-.61599731.99316406-.65777588 1.02728271-.06350708 1.90826416-.75564575 2.2130127-1.73867797.30474853-.98300171-.0302124-2.052063-.84051514-2.68545533zm-28.51226806 6.23150635c-.53295898.21365357-1.14245605.0758667-1.5316162-.34625244-.3892212-.42211914-.47711183-1.04077148-.22094727-1.55456543.34039306-.71157837.30078125-1.54647827-.10528565-2.22268677l-4.4138794-7.6442871c-.38256835-.6897583-1.08581542-1.14151002-1.87225341-1.20272828-.53948975-.03271484-1.01031494-.37722778-1.20471192-.88153076-.2109375-.5404663-.06201171-1.15518188.37298584-1.53918457.43493653-.3840332 1.06341553-.45568848 1.57366944-.17944336.73187256.37454224 1.60473633.34802246 2.31256103-.0703125l15.05377198-8.69076538c.71691894-.40304565 1.17700195-1.14550781 1.21881103-1.96676636.01489258-.55084228.35675049-1.03973388.8690796-1.24276733.56463622-.22253418 1.20831298-.0543518 1.59191894.41592407.33972168.42059326.40246582 1.00079346.16064453 1.48428345-.34051514.71166992-.30096436 1.54672241.10528564 2.22302246l4.41259766 7.6442566c.38275146.68963622 1.08587646 1.14135741 1.87225342 1.20275878.53985595.03219604 1.0111084.37664795 1.20568847.88119507.21557617.56726074.03942871 1.20883179-.43566894 1.5864563-.43200684.34213257-1.02630616.39385986-1.51098633.13156128-.73187256-.37472535-1.6046753-.34829712-2.31256104.07000732l-15.0550537 8.69171143c-.64880372.36917114-1.090271 1.01779174-1.19567872 1.7567749v.00436401c-.00872803.0687561-.01843262.1374817-.02062988.20718384-.01568604.55059814-.35784912 1.03894043-.86999512 1.24179077zm27.07281494-2.8998413c.5392456-.0322876 1.0100708-.37615968 1.20489502-.8798523v-.00204468c.21490479-.5666809.0392456-1.20736694-.43487549-1.58514404-.4319458-.34225464-1.02636718-.39401245-1.51092529-.13156128-.73187256.37484741-1.60479736.34841919-2.31256103-.0699768l-7.8302002-4.52038575-13.55596924 7.82580566c-.24420166.1392212-.43988037.34991455-.56066894.60372925.92034912.52996826 4.05102539 2.33581543 14.76879883 8.51953125.71618652.40359497 1.1755371 1.14608765 1.21691894 1.96707153.01470947.55145264.35705567 1.0409546.86999512 1.24398804.56481933.22219849 1.2084961.05395508 1.59228515-.41622925.33959961-.42059326.40240479-1.00076294.1605835-1.48428344-.34033203-.71170044-.30078125-1.54666138.10534668-2.22299195l4.41351318-7.64459228c.38275147-.6899414 1.08624268-1.14181519 1.87286377-1.20306397z"/>
  </g>
</svg>
