<?xml version="1.0" encoding="UTF-8"?>
<svg width="115px" height="41px" viewBox="0 0 115 41" version="1.1" xmlns="http://www.w3.org/2000/svg" xmlns:xlink="http://www.w3.org/1999/xlink">
    <!-- Generator: Sketch 61.2 (89653) - https://sketch.com -->
    <title>Group 11</title>
    <desc>Created with Sketch.</desc>
    <g id="Homepage" stroke="none" stroke-width="1" fill="none" fill-rule="evenodd">
        <g id="LG-/-1224-→-1439" transform="translate(-77.000000, -24.000000)">
            <rect id="Rectangle"  x="0" y="0" width="1280" height="86"></rect>
            <g id="Group-11" transform="translate(76.000000, 24.000000)">
                <g id="Group-14" transform="translate(48.000000, 4.000000)" font-family="Spectral-Bold, Spectral" font-size="18" font-weight="bold">
                    <text id="Caviar" fill="#FFFFFF">
                        <tspan x="0" y="36">Caviar</tspan>
                    </text>
                    <text id="Chalets" fill="#FFFFFF">
                        <tspan x="0" y="19">Chalets</tspan>
                    </text>
                    <text id="&amp;" fill="#EDCB9B">
                        <tspan x="54" y="33">&amp;</tspan>
                    </text>
                </g>
                <g id="Group-4" fill="#EDCB9B">
                    <path d="M20.3291153,0.596460182 L38.0231937,16.2510483 C38.4368283,16.6170057 38.4754783,17.2489899 38.1095208,17.6626246 C37.9197131,17.8771606 37.6470175,18 37.3605691,18 L2.57259558,18 C2.02031083,18 1.57259558,17.5522847 1.57259558,17 C1.57259558,16.7195296 1.69037918,16.4519509 1.89721836,16.2625276 L18.9911136,0.607939465 C19.368486,0.262341817 19.9458688,0.257388205 20.3291153,0.596460182 Z" id="Triangle"></path>
                    <g id="Group-2" transform="translate(3.000000, 22.000000)">
                        <path d="M32.7142857,15.4285714 C33.4243661,15.4285714 34,16.0042053 34,16.7142857 C34,17.4243661 33.4243661,18 32.7142857,18 L1.28571429,18 C0.575633893,18 8.6959768e-17,17.4243661 0,16.7142857 C-8.6959768e-17,16.0042053 0.575633893,15.4285714 1.28571429,15.4285714 L11.333,15.428 L11.3333333,18 L22.3232323,18 L22.323,15.428 L32.7142857,15.4285714 Z M1.71717172,16.3928571 C1.52749817,16.3928571 1.37373737,16.5367656 1.37373737,16.7142857 C1.37373737,16.8918058 1.52749817,17.0357143 1.71717172,17.0357143 C1.90684527,17.0357143 2.06060606,16.8918058 2.06060606,16.7142857 C2.06060606,16.5367656 1.90684527,16.3928571 1.71717172,16.3928571 Z M31.9393939,16.3928571 C31.7497204,16.3928571 31.5959596,16.5367656 31.5959596,16.7142857 C31.5959596,16.8918058 31.7497204,17.0357143 31.9393939,17.0357143 C32.1290675,17.0357143 32.2828283,16.8918058 32.2828283,16.7142857 C32.2828283,16.5367656 32.1290675,16.3928571 31.9393939,16.3928571 Z M11.333,10.285 L11.333,12.857 L4.46464646,12.8571429 L4.46464646,10.2857143 L11.333,10.285 Z M29.1919192,10.2857143 L29.1919192,12.8571429 L22.323,12.857 L22.323,10.285 L29.1919192,10.2857143 Z M27.4747475,11.25 C27.2850739,11.25 27.1313131,11.3939085 27.1313131,11.5714286 C27.1313131,11.7489487 27.2850739,11.8928571 27.4747475,11.8928571 C27.664421,11.8928571 27.8181818,11.7489487 27.8181818,11.5714286 C27.8181818,11.3939085 27.664421,11.25 27.4747475,11.25 Z M6.52525253,11.25 C6.33557897,11.25 6.18181818,11.3939085 6.18181818,11.5714286 C6.18181818,11.7489487 6.33557897,11.8928571 6.52525253,11.8928571 C6.71492608,11.8928571 6.86868687,11.7489487 6.86868687,11.5714286 C6.86868687,11.3939085 6.71492608,11.25 6.52525253,11.25 Z M32.7142857,5.14285714 C33.4243661,5.14285714 34,5.71849104 34,6.42857143 C34,7.13865182 33.4243661,7.71428571 32.7142857,7.71428571 L22.323,7.714 L22.3232323,7.10714286 C22.3232323,6.59430702 21.9371921,6.1716357 21.4398534,6.11387059 L21.3232323,6.10714286 L12.3333333,6.10714286 C11.7810486,6.10714286 11.3333333,6.55485811 11.3333333,7.10714286 L11.3333333,7.10714286 L11.333,7.714 L1.28571429,7.71428571 C0.575633893,7.71428571 8.6959768e-17,7.13865182 0,6.42857143 C-8.6959768e-17,5.71849104 0.575633893,5.14285714 1.28571429,5.14285714 L32.7142857,5.14285714 Z M1.71717172,6.10714286 C1.52749817,6.10714286 1.37373737,6.25105133 1.37373737,6.42857143 C1.37373737,6.60609153 1.52749817,6.75 1.71717172,6.75 C1.90684527,6.75 2.06060606,6.60609153 2.06060606,6.42857143 C2.06060606,6.25105133 1.90684527,6.10714286 1.71717172,6.10714286 Z M31.9393939,6.10714286 C31.7497204,6.10714286 31.5959596,6.25105133 31.5959596,6.42857143 C31.5959596,6.60609153 31.7497204,6.75 31.9393939,6.75 C32.1290675,6.75 32.2828283,6.60609153 32.2828283,6.42857143 C32.2828283,6.25105133 32.1290675,6.10714286 31.9393939,6.10714286 Z M29.1919192,0 L29.1919192,2.57142857 L4.46464646,2.57142857 L4.46464646,0 L29.1919192,0 Z M6.52525253,0.964285714 C6.33557897,0.964285714 6.18181818,1.10819419 6.18181818,1.28571429 C6.18181818,1.46323438 6.33557897,1.60714286 6.52525253,1.60714286 C6.71492608,1.60714286 6.86868687,1.46323438 6.86868687,1.28571429 C6.86868687,1.10819419 6.71492608,0.964285714 6.52525253,0.964285714 Z M27.4747475,0.964285714 C27.2850739,0.964285714 27.1313131,1.10819419 27.1313131,1.28571429 C27.1313131,1.46323438 27.2850739,1.60714286 27.4747475,1.60714286 C27.664421,1.60714286 27.8181818,1.46323438 27.8181818,1.28571429 C27.8181818,1.10819419 27.664421,0.964285714 27.4747475,0.964285714 Z" id="Combined-Shape"></path>
                    </g>
                    <path d="M6,12 L11,6.21357197 L11,2 C11,1.44771525 10.5522847,1 10,1 L7,1 C6.44771525,1 6,1.44771525 6,2 L6,12 L6,12 Z" id="Path"></path>
                </g>
            </g>
        </g>
    </g>
</svg>