<svg xmlns="http://www.w3.org/2000/svg" width="36.571" height="40" viewBox="0 0 36.571 40">
  <g>
    <path fill="rgb(237,203,155)" fill-rule="evenodd" d="M16 9.14285278c0-1.26031494 1.02539063-2.28570556 2.2857666-2.28570556 1.2602539 0 2.28564453 1.02539062 2.28564453 2.28570556 0 1.26034546-1.02539062 2.28573609-2.28564453 2.28573609C17.02539063 11.42858887 16 10.40319824 16 9.14285278zm1.24267578 0c0 .57519532.4678955 1.04302979 1.04296875 1.04302979.57519531 0 1.04309082-.46783447 1.04309082-1.04302979 0-.5751953-.46777344-1.04302978-1.04309082-1.04302978-.57519531 0-1.04296875.46783447-1.04296875 1.04302978z"/>
    <path fill="rgb(237,203,155)" fill-rule="evenodd" d="M34.6940918 35.96707153l1.7993164 3.15151978c.1604004.28079223.06555176.64001465-.2113037.80239868C36.19055175 39.97454834 36.0908203 40 35.99230956 40c-.20019531 0-.39501953-.10516357-.5024414-.29330444l-1.84240723-3.22677613-.0090332.0041504c-.21044922.09686279-.43273926.1428833-.65234376.1428833-.5645752 0-1.11218261-.30426026-1.39941406-.83120728l-2.06811523-3.79483032c-.15466309-.28390503-.05285645-.64111328.22753906-.79785157.28027344-.1566162.63293457-.05355834.78771973.23034668l2.06799316 3.79473877c.1081543.19848633.3527832.2805481.55664063.18667603l.80725097-.37167358c.1102295-.05075074.19213867-.14276124.23059082-.2590332.03857422-.11627198.02783203-.23965455-.02978515-.34741212L22.17443848 12.05010986c-.69445801.98834229-1.74584961 1.70211792-2.96276856 1.94555664l4.8972168 9.1178894c.03601074.0671692.0826416.12692262.13891601.17764283l3.57055664 3.22763062c.04882813.04415893.08996583.09640502.12158204.15441894l1.39978027 2.568573c.15466309.28393555.05297852.64111328-.227417.79788208-.08874511.04962158-.18481445.07321167-.27966308.07321167-.20422363 0-.40234375-.1095581-.5081787-.30355835l-1.29174806-2.37026978c-.23596191 1.66799927-.9329834 3.24539185-2.02185058 4.53781128-.6697998.7949524-1.46728516 1.4593811-2.34997559 1.96966553h3.08508301c.03625488-.6314087.5534668-1.13424683 1.18579102-1.13424683h1.02062988c.65588379 0 1.18945312.5404358 1.18945312 1.20465088v1.03378296c0 .66427613-.53356933 1.20462036-1.18945312 1.20462036H26.9317627c-.63232422 0-1.14953614-.50283813-1.18579102-1.13424682h-5.57519531c-.24829102.81555176-.99926758 1.41000366-1.8848877 1.41000366-.88562012 0-1.63659668-.5944519-1.8848877-1.41000366h-5.5751953c-.03625489.63140869-.5534668 1.13424682-1.1859131 1.13424682H8.6192627c-.6558838 0-1.18933106-.54043579-1.18933106-1.20462036v-1.03378296c0-.66430664.53356934-1.20465088 1.18933106-1.20465088h1.02062988c.63244629 0 1.1496582.50283814 1.18591308 1.13424683h3.08508301c-.8828125-.51019287-1.68029785-1.17471313-2.35009765-1.96966553-1.08874512-1.29241943-1.78588868-2.869812-2.02172852-4.53781128l-4.55407715 8.35650635c-.28723144.52694702-.83483887.83120728-1.39941406.83129883-.21972656 0-.44177246-.04605103-.65234375-.1428833l-.0090332-.0041504L1.0817871 39.706604c-.10742188.1881714-.3022461.29330445-.5024414.29330445-.09851075 0-.1982422-.02542115-.28979493-.0789795-.2770996-.162323-.37194824-.5215454-.21154785-.80233764l1.7993164-3.15145874c-.27868652-.1966858-.49243163-.47988892-.60168456-.80966187-.13977051-.42242431-.09973145-.88934326.11010742-1.28097534l1.53857422-2.8722229c.15270996-.28518677.5045166-.39111328.7861328-.23617554.28149415.15466309.38586427.51107788.2331543.79614258L2.4050293 34.43655396c-.05773926.1078186-.06835938.23129272-.02990723.34750366.03857422.116333.12036133.2083435.23059082.25900268l.80737305.37167359c.20385742.09381103.44836426.01184082.55664062-.18673706l4.6616211-8.55459595c.0316162-.05810547.0727539-.11032105.12158203-.15441895l3.57043457-3.22753906c.05627441-.05090332.10302734-.11062622.13903808-.17758179l1.36279297-2.53735351c.15307617-.28491211.50512696-.39031983.78637696-.23519898.28137207.15493775.3852539.51153565.2322998.79644776l-1.36279297 2.53720093c-.09973144.1859436-.22937012.35177612-.38549805.49279785l-2.48168945 2.24334716c.05371094 1.76290894.69726563 3.4604187 1.82873535 4.8034668 1.05517578 1.25247193 2.47473145 2.13113403 4.0390625 2.51364136.30639649-.70101929.99926758-1.19155884 1.80383301-1.19155884.80444336 0 1.49731445.49053955 1.803833 1.19155884 1.56433106-.38250732 2.98388673-1.26116943 4.03894044-2.51364136 1.13146972-1.34298706 1.77502441-3.04055786 1.82873535-4.8034668l-2.48168945-2.2434082c-.15600586-.1409607-.28564453-.30679321-.38562012-.4928894l-4.80407715-8.94515991-2.25830078 4.20495605c-.1052246.19573975-.30432129.30667114-.5098877.30667114-.09362792 0-.18847656-.0229187-.27661132-.07141113-.28125-.1550293-.38525391-.51159668-.2322998-.79650879l2.35107421-4.37768555c-1.21691894-.24343872-2.26818848-.9571228-2.96264648-1.94555664L5.12451172 29.35974121c-.10510254.19613648-.30444336.30734253-.51013184.30734253-.09338379 0-.18811035-.02285767-.27600097-.07119751-.28149414-.15463257-.38586426-.51104736-.2331543-.79614258l2.99145508-5.58432007-1.67126465-.98587036c-.1661377.1302185-.35754395.22714234-.56652832.283844-.13793945.0375061-.2779541.05596924-.41711426.05596924-.27758789 0-.5513916-.07366944-.7980957-.21798707l-.43640137-.25524902c-.3704834-.2164917-.63549805-.56625366-.74621582-.98483276-.11071777-.41842652-.05395508-.8555603.16003418-1.23077393l1.66601563-2.9227295c.21386718-.37521361.5592041-.64355468.9724121-.75567626.41296387-.11236572.84472657-.05465698 1.21520997.16201782l.43652343.25524903c.57067871.33370971.86132813.97183227.7890625 1.59609985l1.59570313.89419556.15319824-.28604126v-8.41522217h-.22253418c-.65795898 0-1.19335937-.54223633-1.19335937-1.20877075V7.57455444c0-.66656494.53540039-1.20880127 1.19335937-1.20880127h1.60461426c.65820312 0 1.19360351.54223633 1.19360351 1.20880127v1.625c0 .66656494-.53540039 1.20877076-1.19360351 1.20877076h-.22241211v6.25042724l3.14990234-5.88000488c-.15771484-.47918701-.24438476-.99093628-.24438476-1.52313233 0-1.57833862.74084472-3.02474975 1.9975586-3.93215942v-.71347046c0-.51730347.3276367-.95742798.78332519-1.12210083V1.52258301C16.29528809.68307495 16.96960449 0 17.79858399 0h.89672851c.82910156 0 1.50354004.68307495 1.50354004 1.522583v1.96530152c.4555664.16467285.78320312.6048584.78320312 1.12210083v.65991211c1.28771973.89620972 2.0748291 2.39352417 2.0748291 3.98571777 0 .53219605-.08666992 1.04394532-.24426269 1.52313233l3.14990234 5.88009643v-6.25042724h-.22253418c-.65808105 0-1.19348144-.54223633-1.19348144-1.20877075V7.57455444c0-.66656494.53540039-1.20880127 1.19348144-1.20880127h1.60461426c.65808106 0 1.19348145.54223633 1.19348145 1.20880127V9.199646c0 .66653442-.5354004 1.20877075-1.19348145 1.20877075h-.22253418v8.41513061l.15332031.28604126 1.59570313-.89416504c-.0723877-.6242981.21838379-1.26242065.78894043-1.59613037l.43652344-.25524902c.37060547-.21658325.80200195-.27420044 1.21520996-.16201782.413208.11206054.75854492.38046264.9724121.75567627l1.6661377 2.92272949c.21374512.37521362.27062989.81234741.16003418 1.23077392-.11071777.4185791-.37573242.76828003-.74633789.98492432l-.43640137.25518799c-.2467041.1442871-.52062988.21798706-.7980957.21798706-.13916015 0-.2791748-.01849365-.41711426-.05599976-.20898437-.05667114-.40039062-.15353393-.56640625-.28381347l-1.67138672.98583984 5.71105958 10.66125488c.20983886.39154053.25.85836792.11010742 1.2808838-.10913086.32977294-.32299805.61297607-.60168457.80960082zM17.45495605 1.52258301c0-.19198609.1541748-.34811402.34375-.34811402h.89672852c.1895752 0 .34375.15612793.34375.34811402v1.8951416h-1.58422852V1.522583zm.82873536 11.39068603h.00354004c1.99060058-.00079345 3.60998535-1.64129638 3.60998535-3.6576538 0-1.2921753-.68530274-2.50186158-1.78845215-3.15707398-.17749024-.10546875-.28649903-.2982483-.28649903-.5065918v-.9819641c0-.00976563-.0078125-.01776124-.01745605-.01776124h-3.11560059c-.00964355 0-.01757812.0079956-.01757812.01776123v1.02832031c0 .20394898-.10437012.393219-.27575684.50009156-1.07824707.67211914-1.72180175 1.83743286-1.72180175 3.11721801 0 2.01620484 1.61914062 3.65655518 3.60961914 3.65765381zM9.19299316 9.199646V7.57455444c0-.01889038.01513672-.03430175.03381348-.03430175h1.60461426c.01855469 0 .03381348.01535034.03381348.03430175V9.199646c0 .01885986-.01513672.03427124-.03381348.03427124H9.22680664c-.01855469 0-.03381348-.01541138-.03381348-.03427124zm16.5131836-1.62509156V9.199646c0 .01885986.01513672.03427124.03381347.03427124h1.60461426c.01867676 0 .03381348-.01541138.03381348-.03427124V7.57455444c0-.01895141-.01525879-.03430175-.03381348-.03430175h-1.60461426c-.01867675 0-.03381347.01541137-.03381347.03430175zM4.55871582 21.3789978c.11413574-.03094482.20935059-.10501098.26843262-.2085266l1.6661377-2.92263795c.1217041-.21377563.04919433-.48797607-.16174317-.6112976l-.43652344-.25524903c-.06811523-.03985596-.14355469-.06021118-.22009277-.06021118-.03845215 0-.07702637.00509643-.1151123.01541138-.11401368.03094482-.20922852.10501098-.26831055.2085266l-1.6661377 2.9227295c-.05895996.10351562-.07458496.22409058-.04406738.3395691.03051758.11550902.1036377.21188354.20581054.27163695l.43640137.25534058c.10229492.05981445.22143555.07562256.33520508.04470825zm25.68115234-3.7425232l.43652344-.25524901c.10217285-.05981446.22106934-.07562256.33520508-.04470826.11401367.03100586.20922852.10501099.26831055.20852662l1.6661377 2.92272949c.05895995.10351562.07458495.22409057.04406737.33956909-.03063964.11550903-.1036377.21188354-.20581054.271698l-.43652344.25524902c-.10217285.05984497-.22131348.07565308-.33520508.04470825-.11401367-.03100586-.20922851-.10498047-.26831054-.2084961l-1.6661377-2.92272948c-.1217041-.21377564-.04919434-.48797608.16174316-.61129761zM6.10766602 21.27282716l1.12658691-1.97625733 1.508667.84539795-1.09301759 2.04052735-1.54223632-.90966797zm24.35583496 0l-1.12646485-1.97625733-1.50878906.84539795 1.09301758 2.04052735 1.54223633-.90966797zM18.2857666 35.35665894c-.44799805 0-.81237793-.36911011-.81237793-.82278443 0-.0231018.00158692-.04586792.00341797-.06851196l.00146484-.0199585c.04370118-.4121704.38903809-.73428344.80749512-.73428344.41833496 0 .76367188.32211303.80749512.73428344.00024414.00665283.0008545.01330567.00146484.0199585.00183106.02264404.00341797.04534912.00341797.06851196-.00012207.45367432-.36450195.82278443-.81237793.82278443zm-8.6459961-.27578736c.01635743 0 .02978516-.01351929.02978516-.03012085v-1.03378296c0-.01660156-.01342773-.03015136-.02978515-.03015136H8.61914063c-.01635743 0-.02978516.0135498-.02978516.03015136v1.03378296c0 .01660156.01342773.03012085.02978516.03012085H9.6397705zm17.29187013-1.09405517c-.01635743 0-.02978516.0135498-.02978516.03015136v1.03378296c0 .01660156.01342773.03012085.02978515.03012085h1.02062989c.01635742 0 .02978515-.01351929.02978515-.03012085v-1.03378296c0-.01660156-.01342773-.03015136-.02978515-.03015136h-1.02062989z"/>
  </g>
</svg>
