<svg height="512" viewBox="0 0 128 128" width="512" xmlns="http://www.w3.org/2000/svg"><g><path d="m104.117 24.83a1.751 1.751 0 0 0 -1.617-1.08h-77a1.75 1.75 0 0 0 -1.75 1.75v77a1.749 1.749 0 0 0 2.987 1.237l77-77a1.749 1.749 0 0 0 .38-1.907zm-76.867 73.445v-71.025h3.5v2.375a1.75 1.75 0 0 0 3.5 0v-2.375h6v5.25a1.75 1.75 0 0 0 3.5 0v-5.25h6v2.375a1.75 1.75 0 0 0 3.5 0v-2.375h6v5.25a1.75 1.75 0 0 0 3.5 0v-5.25h6v2.375a1.75 1.75 0 0 0 3.5 0v-2.375h6v5.25a1.75 1.75 0 0 0 3.5 0v-5.25h6v2.375a1.75 1.75 0 0 0 3.5 0v-2.375h7.025z"/><path d="m66.287 38.75h-25.787a1.75 1.75 0 0 0 -1.75 1.75v25.787a1.749 1.749 0 0 0 2.987 1.237l25.787-25.787a1.75 1.75 0 0 0 -1.237-2.987zm-24.037 23.313v-19.813h19.812z"/></g></svg>