<svg id="Capa_1" enable-background="new 0 0 510.863 510.863" height="512" viewBox="0 0 510.863 510.863" width="512" xmlns="http://www.w3.org/2000/svg"><g><path d="m255.432 90.618c-15.213 0-27.59 12.377-27.59 27.59s12.377 27.59 27.59 27.59 27.59-12.377 27.59-27.59-12.377-27.59-27.59-27.59zm0 40.18c-6.942 0-12.59-5.647-12.59-12.59s5.647-12.59 12.59-12.59 12.59 5.647 12.59 12.59-5.648 12.59-12.59 12.59z"/><path d="m490.951 499.607-23.275-40.25c3.605-2.511 6.371-6.128 7.783-10.34 1.81-5.396 1.29-11.358-1.424-16.359l-73.873-136.161 21.619-12.591c2.148 1.664 4.623 2.901 7.327 3.625 1.785.479 3.596.715 5.396.715 3.589 0 7.132-.941 10.323-2.784l5.645-3.259c4.793-2.767 8.221-7.233 9.653-12.579 1.432-5.344.696-10.927-2.07-15.719l-21.551-37.328c-2.767-4.792-7.233-8.22-12.578-9.651-5.345-1.433-10.926-.697-15.719 2.069l-5.646 3.26c-7.381 4.262-11.142 12.412-10.206 20.385l-20.641 11.42-1.982-3.653v-107.475h2.878c8.512 0 15.437-6.925 15.437-15.438v-20.755c0-8.513-6.925-15.438-15.437-15.438h-20.756c-8.513 0-15.438 6.925-15.438 15.438v20.755c0 8.513 6.925 15.438 15.438 15.438h2.878v79.828l-40.744-75.098c2.039-6.12 3.16-12.656 3.16-19.453 0-20.335-10.182-39.458-26.839-50.904v-8.428c0-6.606-4.237-12.228-10.131-14.331v-25.1c0-10.722-8.724-19.446-19.447-19.446h-11.6c-10.723 0-19.446 8.724-19.446 19.446v25.1c-5.893 2.103-10.131 7.724-10.131 14.331v9.112c-16.256 11.589-25.839 30.062-25.839 50.22 0 6.797 1.121 13.333 3.16 19.453l-40.744 75.097v-79.828h2.878c8.513 0 15.438-6.925 15.438-15.438v-20.754c0-8.513-6.925-15.438-15.438-15.438h-20.756c-8.512 0-15.437 6.925-15.437 15.438v20.755c0 8.513 6.925 15.438 15.437 15.438h2.878v107.476l-1.982 3.653-20.641-11.42c.936-7.973-2.825-16.123-10.206-20.385l-5.646-3.26c-4.792-2.767-10.377-3.504-15.719-2.069-5.345 1.432-9.812 4.859-12.578 9.651l-21.551 37.328c-2.767 4.792-3.502 10.375-2.07 15.719 1.433 5.346 4.86 9.813 9.652 12.578l5.646 3.26c3.191 1.843 6.733 2.784 10.323 2.784 1.8 0 3.611-.236 5.396-.715 2.703-.724 5.179-1.962 7.327-3.625l21.619 12.591-38.695 71.321c-1.976 3.641-.626 8.193 3.016 10.168 1.137.617 2.361.909 3.569.909 2.662 0 5.24-1.42 6.599-3.925l119.94-221.072c8.983 12.624 22.582 21.739 38.323 24.848l-30.411 55.91c-1.979 3.639-.634 8.193 3.005 10.173 1.139.619 2.366.912 3.577.912 2.659 0 5.235-1.417 6.596-3.917l29.211-53.704 62.142 114.244c1.292 2.377 2.97 4.495 4.987 6.295l32.102 28.652c-.695 22.515-9.019 44.196-23.655 61.348-13.648 15.996-32.01 27.218-52.245 32.103-3.964-8.953-12.927-15.218-23.333-15.218s-19.369 6.265-23.333 15.218c-20.234-4.885-38.596-16.107-52.245-32.103-14.636-17.153-22.96-38.833-23.655-61.348l32.101-28.651c2.019-1.801 3.696-3.919 4.987-6.294l17.627-32.404c1.979-3.639.635-8.193-3.004-10.172-3.638-1.981-8.193-.635-10.172 3.004l-17.628 32.406c-.466.855-1.07 1.618-1.798 2.268l-46.185 41.221c-.632.563-1.163 1.23-1.572 1.972l-60.299 109.256c-1.401 2.536-4.563 3.583-7.2 2.385l-10.443-4.747c-1.426-.647-2.485-1.822-2.983-3.308-.498-1.484-.36-3.061.386-4.438l19.902-36.684c1.976-3.641.626-8.193-3.016-10.168-3.643-1.979-8.193-.626-10.168 3.016l-19.902 36.683c-2.714 5.002-3.233 10.965-1.424 16.36 1.412 4.212 4.178 7.829 7.783 10.341l-23.275 40.249c-2.074 3.586-.848 8.174 2.737 10.247 1.183.684 2.474 1.009 3.748 1.009 2.59 0 5.109-1.343 6.499-3.746l23.832-41.211.117.053c2.723 1.237 5.596 1.825 8.438 1.825 7.302-.001 14.386-3.887 18.102-10.617l58.907-106.726c3.05 21.303 12.068 41.449 26.152 57.955 8.663 10.153 18.979 18.64 30.398 25.156h-39.906c-.469-8.064-7.159-14.486-15.339-14.486h-13.202c-8.483 0-15.385 6.901-15.385 15.385v13.203c0 8.483 6.901 15.385 15.385 15.385h13.202c8.18 0 14.87-6.422 15.339-14.486h72.116c3.211 10.416 12.925 18.008 24.381 18.008s21.17-7.592 24.381-18.008h72.116c.469 8.064 7.159 14.486 15.339 14.486h13.202c8.483 0 15.385-6.901 15.385-15.385v-13.203c0-8.483-6.901-15.385-15.385-15.385h-13.202c-8.18 0-14.87 6.422-15.339 14.486h-39.906c11.418-6.517 21.734-15.003 30.398-25.156 14.084-16.506 23.101-36.652 26.152-57.955l16.71 30.272c1.368 2.478 3.931 3.877 6.573 3.877 1.226 0 2.469-.301 3.617-.935 3.627-2.002 4.943-6.564 2.942-10.19l-18.107-32.805c-.409-.741-.94-1.408-1.572-1.972l-46.186-41.222c-.727-.648-1.331-1.411-1.797-2.269l-63.345-116.45c15.741-3.109 29.34-12.225 38.323-24.848l155.119 285.913c.746 1.376.884 2.952.386 4.437s-1.558 2.66-2.983 3.308l-10.443 4.747c-2.637 1.199-5.8.151-7.199-2.384l-26.75-48.465c-2.002-3.626-6.564-4.942-10.19-2.942-3.627 2.002-4.943 6.564-2.942 10.19l26.751 48.466c3.715 6.73 10.798 10.616 18.101 10.616 2.841 0 5.716-.588 8.438-1.825l.117-.053 23.832 41.211c1.39 2.403 3.909 3.746 6.499 3.746 1.274 0 2.565-.325 3.748-1.009 3.582-2.074 4.808-6.662 2.734-10.248zm-139.535-382.113v-20.755c0-.241.196-.438.438-.438h20.756c.24 0 .437.196.437.438v20.755c0 .241-.196.438-.437.438h-20.756c-.242 0-.438-.197-.438-.438zm-213.599 0v-20.755c0-.241.196-.438.437-.438h20.756c.241 0 .438.196.438.438v20.755c0 .241-.196.438-.438.438h-20.756c-.24 0-.437-.197-.437-.438zm-56.474 152.887c-.764 1.322-1.996 2.268-3.471 2.663-1.473.395-3.013.193-4.336-.571l-5.646-3.261c-1.321-.763-2.267-1.994-2.662-3.469s-.192-3.015.571-4.337l21.551-37.328c.764-1.322 1.996-2.268 3.471-2.663.492-.132.991-.197 1.488-.197.99 0 1.967.26 2.848.769l5.646 3.26c2.729 1.575 3.667 5.077 2.092 7.807zm16.565 1.307 14.572-25.24 19.516 10.797-14.139 26.061zm46.072 175.966c0 .212-.173.385-.385.385h-13.202c-.212 0-.385-.173-.385-.385v-13.203c0-.212.173-.385.385-.385h13.202c.212 0 .385.173.385.385zm111.452 3.907c-5.794 0-10.508-4.714-10.508-10.508 0-.295.02-.586.044-.875.007-.085.014-.17.019-.255.566-5.264 5.033-9.378 10.445-9.378s9.879 4.114 10.445 9.378c.004.085.011.17.019.255.024.289.044.579.044.875-.001 5.794-4.714 10.508-10.508 10.508zm111.451-17.11c0-.212.173-.385.385-.385h13.202c.212 0 .385.173.385.385v13.203c0 .212-.173.385-.385.385h-13.202c-.212 0-.385-.173-.385-.385zm-122.197-415.005c0-2.452 1.994-4.446 4.446-4.446h11.6c2.452 0 4.446 1.994 4.446 4.446v24.204h-20.492zm10.765 145.477c-.005 0-.01 0-.015 0-.01 0-.02 0-.03 0-25.748-.014-46.691-20.964-46.691-46.714 0-16.345 8.325-31.228 22.271-39.812 2.218-1.365 3.568-3.782 3.568-6.387v-13.133c0-.125.102-.227.227-.227h2.404 35.492 2.404c.125 0 .227.102.227.227v12.541c0 2.661 1.41 5.123 3.706 6.47 14.269 8.368 23.133 23.818 23.133 40.321 0 25.752-20.946 46.704-46.696 46.714zm154.61 60.323 5.646-3.26c1.322-.764 2.86-.966 4.336-.571 1.475.396 2.707 1.341 3.471 2.663l21.551 37.328c.764 1.322.966 2.862.571 4.337-.396 1.475-1.341 2.706-2.663 3.47l-5.646 3.26c-1.322.764-2.862.966-4.336.571-1.475-.396-2.707-1.341-3.471-2.663l-21.552-37.328c-1.574-2.73-.636-6.232 2.093-7.807zm-11.679 21.202 14.572 25.24-19.949 11.618-14.139-26.061z"/></g></svg>