<svg xmlns="http://www.w3.org/2000/svg" width="40" height="40" viewBox="0 0 40 40">
  <g>
    <path fill="rgb(237,203,155)" fill-rule="evenodd" d="M33.81536865 19.35491943h5.53930664c.3567505 0 .6451416.28903199.6451416.64517212v16.77410889c0 .35614014-.2883911.64517212-.6451416.64517212H15.75152588l-2.39221192 2.39160156C13.23352051 39.93676758 13.06835938 40 12.90319824 40c-.16516113 0-.33032226-.06323242-.45617676-.18902588l-2.39160156-2.39160156H.6451416C.28839111 37.41937256 0 37.13034058 0 36.77420044V20.00009155c0-.35614013.28839111-.64517212.6451416-.64517212h6.82965088L26.64056396.18917847c.2522583-.25222779.65997315-.25222779.91223145 0l12.2579956 12.25802612c.2522583.2522583.2522583.66000366 0 .91226196l-5.99542236 5.99545288zm4.62701416-6.4515686L27.09661865 1.55758667 9.29864502 19.35491943h3.63549805c.14837646-1.6515808.8605957-3.18579101 2.0470581-4.37286377 2.76776123-2.76708984 7.2703247-2.76644897 10.03674317 0 1.18707275 1.18707276 1.89935302 2.72128296 2.0470581 4.37286377h4.92578125l6.45159912-6.4515686zm-14.79278564 6.18447876c.0838623.08322144.15997314.17355347.23095703.26708984v.00131226h1.88641357c-.14318847-1.30645752-.71936035-2.51742554-1.66192627-3.46063232-2.26452636-2.26321412-5.94769287-2.26385499-8.21221923 0-.94256592.94320678-1.51806641 2.1541748-1.66192627 3.46063232h1.38128662c-.08062744-.7567749.17034912-1.525177.73742675-2.09225464l-.45611572-.45614624.91223145-.91223144.45611572.45611572c.48773193-.48773194 1.1361084-.75613404 1.82519531-.75613404.68902588 0 1.33673096.2684021 1.8244629.75549317l-.91223145.91226196c-.48773194-.48709106-1.336792-.48709106-1.82452393 0l1.82513428 1.82449341c1.00646973-1.0064392 2.64257812-1.00579834 3.64971924 0zm-6.7290039.26708984c-.08776856-.41934204.02966308-.86773681.34191894-1.1793518l1.17999267 1.1793518h-1.52191162zM1.29034423 36.12902832h37.41918945V20.64523315H1.29034424v15.48379517zm11.61279297 2.31356812l-1.02319336-1.02322388h2.04644775l-1.0232544 1.02322388z"/>
    <path fill="rgb(237,203,155)" fill-rule="evenodd" d="M18.66668701 30.64102173H17.4359131c0 1.41412353 1.1040039 2.56411743 2.46154785 2.56411743v.64102173h1.23077392v-.64102173c1.35754395 0 2.46154785-1.1499939 2.46154785-2.56411743 0-1.41409302-1.1040039-2.56408692-2.46154785-2.56408692v-2.56411743c.67877198 0 1.23077393.57501221 1.23077393 1.28207398h1.23077392c0-1.41412354-1.1040039-2.56411743-2.46154785-2.56411743v-.64102173h-1.23077392v.64102173c-1.35754395 0-2.46154785 1.1499939-2.46154785 2.56411743 0 1.41409301 1.1040039 2.56408691 2.46154785 2.56408691v2.56411743c-.67877198 0-1.23077393-.5750122-1.23077393-1.28207397zm0-3.84616089c0-.70703125.55200195-1.28204346 1.23077393-1.28204346v2.56411743c-.67877198 0-1.23077393-.5750122-1.23077393-1.28207397zm3.69232178 3.84616089c0-.70703125-.55200195-1.28204346-1.23077393-1.28204346v2.56411743c.67877198 0 1.23077393-.5750122 1.23077393-1.28207397z"/>
    <path fill="rgb(237,203,155)" fill-rule="evenodd" d="M27.69226074 28.71792603c0 3.9585266-3.22094726 7.17950439-7.17944336 7.17950439-3.9584961 0-7.1795044-3.22097778-7.1795044-7.1795044 0-3.95849609 3.2210083-7.17947387 7.1795044-7.17947387s7.17944336 3.22097778 7.17944336 7.17947388zm-1.30535888 0c0-3.23858643-2.63482666-5.874115-5.87408448-5.874115-3.23925781 0-5.8741455 2.63552857-5.8741455 5.874115 0 3.23861694 2.63488769 5.8741455 5.8741455 5.8741455 3.23925782 0 5.87408448-2.63552856 5.87408448-5.8741455z"/>
    <path fill="rgb(237,203,155)" fill-rule="evenodd" d="M36.92307692 34.25641026V23.17948718c0-.3396923-.28213017-.61538462-.6311637-.61538462h-7.5739645v1.23076923h6.94280079v9.84615385h-6.9428008v1.23076923h7.5739645c.34903354 0 .63116371-.2756923.63116371-.61538461z"/>
    <path fill="rgb(237,203,155)" fill-rule="evenodd" d="M3.70808679 34.87179487h7.5739645v-1.23076923h-6.9428008V23.7948718h6.9428008v-1.23076923h-7.5739645c-.34903354 0-.63116371.27569231-.63116371.61538462v11.07692308c0 .3396923.28213017.61538461.6311637.61538461z"/>
    <path fill="rgb(237,203,155)" fill-rule="evenodd" d="M29.74358974 30.76923077h1.02564103v1.02564102h-1.02564103v-1.02564102z"/>
    <path fill="rgb(237,203,155)" fill-rule="evenodd" d="M31.7948718 30.76923077h1.02564102v1.02564102H31.7948718v-1.02564102z"/>
    <path fill="rgb(237,203,155)" fill-rule="evenodd" d="M29.74358974 24.61538462h1.02564103v1.02564102h-1.02564103v-1.02564102z"/>
    <path fill="rgb(237,203,155)" fill-rule="evenodd" d="M31.7948718 24.61538462h1.02564102v1.02564102H31.7948718v-1.02564102z"/>
    <path fill="rgb(237,203,155)" fill-rule="evenodd" d="M27.2972753 5.60830313l7.0876262 7.09165632-4.8729388 4.87527867.88587497.88630034 5.31587628-5.31842884c.2449626-.24508022.2449626-.64122011 0-.88630034l-7.97350117-7.97795666c-.23493855-.23505136-.65093641-.23505136-.88587496 0l-5.31587628 5.31842884.88587496.88630034 4.8729388-4.87527867z"/>
    <path fill="rgb(237,203,155)" fill-rule="evenodd" d="M27.7244542 15.92244413l.9122578-.91225832.91225832.9122578-.9122578.91225833-.91225833-.91225781z"/>
    <path fill="rgb(237,203,155)" fill-rule="evenodd" d="M29.5485142 14.09760606l.9122578-.91225832.91225832.91225781-.9122578.91225832-.91225833-.9122578z"/>
    <path fill="rgb(237,203,155)" fill-rule="evenodd" d="M23.16309871 11.36096477l.9122578-.91225832.91225833.91225781-.91225781.91225832-.91225832-.9122578z"/>
    <path fill="rgb(237,203,155)" fill-rule="evenodd" d="M24.98715871 9.5361267l.9122578-.91225831.91225833.9122578-.91225781.91225833-.91225832-.91225781z"/>
    <path fill="rgb(237,203,155)" fill-rule="evenodd" d="M7.17948718 24.61538462H8.2051282v1.02564102H7.17948718v-1.02564102z"/>
    <path fill="rgb(237,203,155)" fill-rule="evenodd" d="M9.23076923 24.61538462h1.02564103v1.02564102H9.23076923v-1.02564102z"/>
    <path fill="rgb(237,203,155)" fill-rule="evenodd" d="M7.17948718 30.76923077H8.2051282v1.02564102H7.17948718v-1.02564102z"/>
    <path fill="rgb(237,203,155)" fill-rule="evenodd" d="M9.23076923 30.76923077h1.02564103v1.02564102H9.23076923v-1.02564102z"/>
  </g>
</svg>
