<?xml version="1.0"?>
<svg xmlns="http://www.w3.org/2000/svg" width="512" height="512" viewBox="0 0 128 128"><g><path d="M37.1,74.675A23.591,23.591,0,0,0,20.986,47.951a1.75,1.75,0,1,0-1.049,3.339A20.086,20.086,0,0,1,33.654,74.045l-.152.829a1.751,1.751,0,0,0,1.407,2.037,1.8,1.8,0,0,0,.317.029A1.751,1.751,0,0,0,36.945,75.5Z"/><path d="M124.952,72.009a7.965,7.965,0,0,0-8.631-.739,4.147,4.147,0,0,1-4-.17L89.019,57.644l1.3-.749a4.145,4.145,0,0,1,4-.171,7.93,7.93,0,0,0,11.136-9.871,7.885,7.885,0,0,0-6.894-5.025,4.09,4.09,0,0,1-3.178-2.106L81.253,15.259a4.083,4.083,0,0,1-.234-3.8A7.925,7.925,0,0,0,70.953.574,7.966,7.966,0,0,0,66,7.679a4.149,4.149,0,0,1-2.146,3.375L15.675,38.87a4.155,4.155,0,0,1-4,.171A7.929,7.929,0,0,0,.543,48.911a7.885,7.885,0,0,0,6.894,5.025,4.087,4.087,0,0,1,3.178,2.106L24.739,80.505a4.086,4.086,0,0,1,.235,3.805A7.922,7.922,0,0,0,35.04,95.19a7.981,7.981,0,0,0,4.571-4.935c9.363,5.4,45.829,26.443,46.248,26.685a4.151,4.151,0,0,1,2.146,3.375,7.97,7.97,0,0,0,4.954,7.105,7.811,7.811,0,0,0,2.964.581,7.928,7.928,0,0,0,7.1-11.461,4.086,4.086,0,0,1,.235-3.805l14.124-24.463a4.083,4.083,0,0,1,3.178-2.105,7.926,7.926,0,0,0,4.389-14.158ZM33.715,91.951a4.426,4.426,0,0,1-5.608-6.083,7.517,7.517,0,0,0-.337-7.113L13.646,54.292a7.518,7.518,0,0,0-5.991-3.849A4.418,4.418,0,0,1,3.8,47.622a4.425,4.425,0,0,1,6.229-5.5,7.673,7.673,0,0,0,7.4-.225L65.6,14.085A7.668,7.668,0,0,0,69.5,7.791a4.406,4.406,0,0,1,2.781-3.977,4.462,4.462,0,0,1,5.094,1.331,4.416,4.416,0,0,1,.514,4.75,7.516,7.516,0,0,0,.337,7.114L92.346,41.472a7.521,7.521,0,0,0,5.991,3.849,4.417,4.417,0,0,1,3.858,2.82,4.461,4.461,0,0,1-1.394,5.077,4.408,4.408,0,0,1-4.835.421,7.672,7.672,0,0,0-7.4.224L40.391,81.678A7.723,7.723,0,0,0,36.565,87.3l0,.014c-.028.22-.059.44-.066.663A4.41,4.41,0,0,1,33.715,91.951Zm90.488-12.1a4.417,4.417,0,0,1-3.857,2.82,7.521,7.521,0,0,0-5.993,3.85L100.23,110.985a7.519,7.519,0,0,0-.337,7.114,4.417,4.417,0,0,1-.514,4.75,4.466,4.466,0,0,1-5.095,1.332A4.408,4.408,0,0,1,91.5,120.2a7.669,7.669,0,0,0-3.894-6.295C53.31,94.116,43.292,88.337,40.347,86.641a4.4,4.4,0,0,1,1.794-1.932L85.519,59.665l25.056,14.466a7.67,7.67,0,0,0,7.4.224,4.406,4.406,0,0,1,4.835.421A4.463,4.463,0,0,1,124.2,79.853Z"/></g></svg>
